<svg width="284" height="60" viewBox="0 0 284 60" fill="none" xmlns="http://www.w3.org/2000/svg">
<path d="M196.48 16.04C199.573 16.04 202.227 16.6 204.44 17.72C206.653 18.84 208.347 20.4533 209.52 22.56C210.693 24.6667 211.28 27.1733 211.28 30.08C211.28 32.96 210.693 35.4533 209.52 37.56C208.347 39.64 206.653 41.24 204.44 42.36C202.227 43.4533 199.573 44 196.48 44H188.2V16.04H196.48ZM196.48 41.68C200.373 41.68 203.333 40.6667 205.36 38.64C207.413 36.5867 208.44 33.7333 208.44 30.08C208.44 26.4 207.413 23.5333 205.36 21.48C203.333 19.4 200.373 18.36 196.48 18.36H191V41.68H196.48ZM226.002 44.32C223.949 44.32 222.096 43.8667 220.442 42.96C218.816 42.0267 217.522 40.72 216.562 39.04C215.629 37.3333 215.162 35.3467 215.162 33.08C215.162 30.8133 215.642 28.84 216.602 27.16C217.562 25.4533 218.869 24.1467 220.522 23.24C222.176 22.3067 224.029 21.84 226.082 21.84C228.136 21.84 229.989 22.3067 231.642 23.24C233.322 24.1467 234.629 25.4533 235.562 27.16C236.522 28.84 237.002 30.8133 237.002 33.08C237.002 35.32 236.522 37.2933 235.562 39C234.602 40.7067 233.282 42.0267 231.602 42.96C229.922 43.8667 228.056 44.32 226.002 44.32ZM226.002 41.88C227.442 41.88 228.776 41.56 230.002 40.92C231.229 40.2533 232.216 39.2667 232.962 37.96C233.736 36.6267 234.122 35 234.122 33.08C234.122 31.16 233.749 29.5467 233.002 28.24C232.256 26.9067 231.269 25.92 230.042 25.28C228.816 24.6133 227.482 24.28 226.042 24.28C224.602 24.28 223.269 24.6133 222.042 25.28C220.816 25.92 219.829 26.9067 219.082 28.24C218.362 29.5467 218.002 31.16 218.002 33.08C218.002 35 218.362 36.6267 219.082 37.96C219.829 39.2667 220.802 40.2533 222.002 40.92C223.229 41.56 224.562 41.88 226.002 41.88ZM240.826 33.08C240.826 30.8133 241.28 28.84 242.186 27.16C243.093 25.4533 244.346 24.1467 245.946 23.24C247.546 22.3067 249.373 21.84 251.426 21.84C254.12 21.84 256.333 22.5067 258.066 23.84C259.826 25.1733 260.96 26.9867 261.466 29.28H258.466C258.093 27.7067 257.28 26.48 256.026 25.6C254.8 24.6933 253.266 24.24 251.426 24.24C249.96 24.24 248.64 24.5733 247.466 25.24C246.293 25.9067 245.36 26.9067 244.666 28.24C244 29.5467 243.666 31.16 243.666 33.08C243.666 35 244 36.6267 244.666 37.96C245.36 39.2933 246.293 40.2933 247.466 40.96C248.64 41.6267 249.96 41.96 251.426 41.96C253.266 41.96 254.8 41.52 256.026 40.64C257.28 39.7333 258.093 38.48 258.466 36.88H261.466C260.96 39.12 259.826 40.92 258.066 42.28C256.306 43.64 254.093 44.32 251.426 44.32C249.373 44.32 247.546 43.8667 245.946 42.96C244.346 42.0267 243.093 40.72 242.186 39.04C241.28 37.3333 240.826 35.3467 240.826 33.08ZM274.158 44.32C271.651 44.32 269.598 43.7467 267.998 42.6C266.424 41.4267 265.544 39.84 265.358 37.84H268.238C268.371 39.0667 268.944 40.0667 269.958 40.84C270.998 41.5867 272.384 41.96 274.118 41.96C275.638 41.96 276.824 41.6 277.678 40.88C278.558 40.16 278.998 39.2667 278.998 38.2C278.998 37.4533 278.758 36.84 278.278 36.36C277.798 35.88 277.184 35.5067 276.438 35.24C275.718 34.9467 274.731 34.64 273.478 34.32C271.851 33.8933 270.531 33.4667 269.518 33.04C268.504 32.6133 267.638 31.9867 266.918 31.16C266.224 30.3067 265.878 29.1733 265.878 27.76C265.878 26.6933 266.198 25.7067 266.838 24.8C267.478 23.8933 268.384 23.1733 269.558 22.64C270.731 22.1067 272.064 21.84 273.558 21.84C275.904 21.84 277.798 22.44 279.238 23.64C280.678 24.8133 281.451 26.44 281.558 28.52H278.758C278.678 27.24 278.171 26.2133 277.238 25.44C276.331 24.64 275.078 24.24 273.478 24.24C272.064 24.24 270.918 24.5733 270.038 25.24C269.158 25.9067 268.717 26.7333 268.717 27.72C268.717 28.5733 268.971 29.28 269.478 29.84C270.011 30.3733 270.664 30.8 271.438 31.12C272.211 31.4133 273.251 31.7467 274.558 32.12C276.131 32.5467 277.384 32.96 278.318 33.36C279.251 33.76 280.051 34.3467 280.718 35.12C281.384 35.8933 281.731 36.92 281.758 38.2C281.758 39.3733 281.438 40.4267 280.798 41.36C280.158 42.2667 279.264 42.9867 278.118 43.52C276.971 44.0533 275.651 44.32 274.158 44.32Z" fill="#B5B5B5"/>
<path d="M1.23604 12H5.09087C5.41922 12 5.73462 12 6.03338 12.0222C6.16421 12.0216 6.29333 12.0519 6.41028 12.1105C6.52724 12.1692 6.62876 12.2545 6.70663 12.3597C6.86499 12.5988 6.95024 12.8789 6.95193 13.1657C6.9667 13.4958 6.9759 13.8555 6.9759 14.2429V41.0664C6.9759 41.4556 6.9759 41.889 6.99806 42.3667C7.03496 42.7378 6.96456 43.1117 6.79523 43.4439C6.67562 43.6523 6.40609 43.8128 5.98918 43.9364C5.77 43.996 5.54109 44.011 5.316 43.9806C5.07791 43.9512 4.83824 43.9365 4.59834 43.9364H1.95525C1.64728 43.9375 1.33946 43.9227 1.03301 43.8921C0.779468 43.8741 0.537199 43.7803 0.33768 43.6228C0.172418 43.4367 0.0777573 43.1984 0.0702213 42.9496C0.0384474 42.6364 0.0230526 42.3218 0.0240959 42.0071V15.1854C0.0240959 14.7661 0.0167262 14.2742 0.00199181 13.7098C-0.0127426 13.1454 0.0542712 12.7421 0.203037 12.4999C0.351213 12.2973 0.554018 12.1412 0.78771 12.0498C0.87024 12.0495 0.952496 12.0403 1.03301 12.0222C1.09982 12.0083 1.16781 12.0008 1.23604 12Z" fill="#F8FBFE"/>
<path d="M58.4092 21.0601C59.3621 21.015 60.3158 21.1323 61.2294 21.4068C61.9936 21.6457 62.7115 22.0131 63.3523 22.4932C63.5861 22.6688 63.7973 22.8727 63.9812 23.1C64.1791 23.3423 64.389 23.5744 64.6102 23.7955C64.6996 23.8801 64.7939 23.9596 64.8924 24.0334C64.9478 24.082 65.0159 24.1139 65.0887 24.1253C65.1615 24.1368 65.2361 24.1273 65.3037 24.098C65.6635 23.9841 65.9809 23.7651 66.2149 23.469C66.4551 23.1811 66.7323 22.9262 67.0394 22.711C67.4405 22.3945 67.8767 22.1253 68.3395 21.9086C68.8485 21.6726 69.3692 21.4627 69.8996 21.2797C70.1786 21.2131 70.4613 21.1626 70.7462 21.1285C71.0782 21.0842 71.4249 21.0565 71.7863 21.0418C72.1331 21.0267 72.4805 21.0341 72.8263 21.0639C73.1253 21.0872 73.4224 21.1304 73.7156 21.193C73.8435 21.2207 73.9739 21.2355 74.1047 21.2373C74.2394 21.2407 74.3722 21.2702 74.4958 21.3239C74.9004 21.4384 75.2908 21.5539 75.667 21.6707C76.0333 21.7823 76.3831 21.9424 76.7071 22.1466C77.9454 22.9271 78.9026 24.0822 79.4395 25.444C79.5531 25.7019 79.6403 25.9708 79.6995 26.2464C79.7567 26.5211 79.8139 26.7886 79.8729 27.0487C79.9024 27.2515 79.9227 27.4379 79.9374 27.602C79.9522 27.7661 79.9744 27.9488 80.0038 28.122V28.5555C80.0329 28.7569 80.0397 28.961 80.0241 29.1639C80.0094 29.3945 80.0038 29.6121 80.0038 29.8132V40.7839C80.0038 41.0144 80.0039 41.2819 80.0241 41.5862C80.0389 41.875 80.0389 42.1643 80.0241 42.4531C80.0113 42.7158 79.9755 42.9768 79.9172 43.2332C79.8884 43.4235 79.7969 43.5988 79.6571 43.7311C79.4654 43.8833 79.2287 43.9677 78.984 43.9709C78.7091 43.9857 78.414 43.9912 78.0947 43.9912H75.7965C75.4337 43.9952 75.0714 43.9662 74.7138 43.9045C74.5733 43.8887 74.4393 43.8364 74.3252 43.7529C74.211 43.6695 74.1205 43.5577 74.0627 43.4286C73.9736 43.2155 73.929 42.9864 73.9318 42.7555V31.9422C73.9288 31.7826 73.9362 31.623 73.9539 31.4645C73.9699 31.303 73.9478 31.14 73.8894 30.9886V30.1217C73.8893 29.9474 73.8745 29.7735 73.8451 29.6017C73.8166 29.4808 73.8024 29.357 73.8027 29.2328C73.8034 29.1085 73.7886 28.9845 73.7584 28.8639C73.6571 28.4742 73.5339 28.0905 73.3895 27.7146C73.2577 27.3808 73.058 27.078 72.803 26.8254C72.3917 26.4172 71.8842 26.1191 71.3274 25.9585C71.2283 25.932 71.125 25.9244 71.0231 25.9364C70.9179 25.9482 70.8118 25.9255 70.7206 25.8718C70.5852 25.8409 70.4477 25.8193 70.3093 25.8072C70.1573 25.7925 70.0039 25.7993 69.8538 25.8276C69.6864 25.885 69.5107 25.9143 69.3337 25.9143C69.1562 25.9151 68.98 25.9443 68.8118 26.0009C67.9744 26.2911 67.3676 26.7252 66.9913 27.3031C66.4739 28.0374 66.1665 28.8989 66.1023 29.7949C65.9969 30.883 65.9464 31.9757 65.951 33.0688V42.8683C65.964 43.1181 65.8868 43.3643 65.7334 43.5618C65.6601 43.6634 65.5666 43.7486 65.4586 43.8121C65.3506 43.8756 65.2307 43.916 65.1063 43.9307C64.7974 43.9767 64.4853 43.9983 64.173 43.9953H61.8361C61.5761 43.9953 61.3212 43.9953 61.0762 43.975C60.8627 43.9656 60.6514 43.9291 60.4472 43.8662C60.3113 43.8035 60.194 43.7067 60.1067 43.5851C60.0194 43.4636 59.9652 43.3214 59.9492 43.1726C59.903 42.813 59.8814 42.4507 59.8847 42.0881V31.5954C59.8847 30.758 59.8558 29.9631 59.798 29.2106C59.7675 28.5518 59.5736 27.9109 59.2336 27.3458C59.0267 26.9666 58.719 26.6519 58.3446 26.4365C57.9258 26.2111 57.4819 26.0359 57.0221 25.9146C56.9087 25.8867 56.7912 25.8798 56.6753 25.8942C56.5453 25.9083 56.4138 25.9008 56.2861 25.8721C55.9805 25.814 55.6645 25.8441 55.3753 25.9588C55.3168 25.9588 55.2585 25.9662 55.2019 25.9809C55.1452 25.9949 55.0869 26.0017 55.0285 26.0013C54.5384 26.1614 54.0824 26.4116 53.684 26.739C53.248 27.0556 52.8856 27.4627 52.6215 27.9324C52.3675 28.4063 52.1918 28.9183 52.1015 29.4485C51.996 30.0579 51.938 30.6746 51.9281 31.293C51.9134 31.9594 51.906 32.6824 51.906 33.462V42.7414C51.9105 42.9789 51.8666 43.2149 51.7768 43.4349C51.7186 43.5636 51.628 43.6751 51.5139 43.7585C51.3998 43.8419 51.2661 43.8943 51.1258 43.9107C50.7676 43.9725 50.4046 44.0015 50.0412 43.9974H47.7874C47.4978 43.9974 47.2156 43.9974 46.9408 43.9771C46.7034 43.9738 46.4714 43.9063 46.2694 43.7816C46.0094 43.6378 45.871 43.3703 45.8581 42.9793C45.8452 42.5883 45.8359 42.177 45.8359 41.7435V23.4834C45.8359 23.1662 45.8359 22.8841 45.8581 22.6387C45.8646 22.4151 45.9322 22.1976 46.0536 22.0098C46.2362 21.8157 46.482 21.6929 46.7468 21.6633H47.0069C47.1568 21.6332 47.3095 21.6184 47.4624 21.6191H49.6942C49.9188 21.6151 50.1435 21.6225 50.3674 21.6412C50.5662 21.652 50.7627 21.6886 50.9521 21.75C51.056 21.7828 51.1511 21.8389 51.23 21.914C51.309 21.9891 51.3697 22.0813 51.4077 22.1835C51.4863 22.4106 51.5516 22.6422 51.6032 22.877C51.6303 22.9532 51.6373 23.0352 51.6235 23.1149C51.6162 23.1504 51.6186 23.1873 51.6302 23.2216C51.6419 23.256 51.6625 23.2866 51.6898 23.3104C51.7103 23.3828 51.7469 23.4497 51.7969 23.5059L51.9499 23.6571C52.1098 23.6756 52.2718 23.6557 52.4225 23.5993C52.5732 23.5429 52.7083 23.4514 52.8168 23.3325C53.0147 23.1168 53.2327 22.9203 53.4679 22.746C53.8662 22.4641 54.28 22.2049 54.7074 21.9695C55.1414 21.7357 55.5997 21.5501 56.0741 21.4161C56.3271 21.3304 56.5887 21.2723 56.8542 21.2428C57.1142 21.2133 57.3891 21.1708 57.6786 21.1118C57.806 21.0812 57.9378 21.0737 58.0678 21.0897C58.1824 21.1053 58.299 21.0951 58.4092 21.0601Z" fill="#F8FBFE"/>
<path d="M106.101 32.0472C106.16 32.3038 106.16 32.5706 106.101 32.8272C106.092 32.9367 106.06 33.0431 106.008 33.1399C105.956 33.2367 105.885 33.3217 105.798 33.3898C105.612 33.5219 105.396 33.6045 105.169 33.6296C104.867 33.6749 104.563 33.7038 104.258 33.7163C103.926 33.7311 103.594 33.7311 103.262 33.7163C102.928 33.7015 102.633 33.6941 102.373 33.6941H91.2068C91.0368 33.6912 90.8678 33.7206 90.7088 33.7808C90.5326 33.8501 90.3816 33.971 90.2753 34.1276C90.1961 34.2229 90.1371 34.3333 90.1019 34.4522C90.0453 34.597 90.0299 34.7548 90.0577 34.9078C90.1133 35.069 90.1498 35.2361 90.1665 35.4058C90.1829 35.5761 90.2194 35.7439 90.2753 35.9056C90.4649 36.5172 90.75 37.0948 91.1201 37.6172C91.4919 38.1018 91.9565 38.5075 92.4868 38.8106C92.705 38.9498 92.948 39.0456 93.2025 39.0928C93.4596 39.1383 93.7131 39.203 93.9605 39.2865C94.274 39.3576 94.5931 39.4014 94.9141 39.4175C95.2618 39.4493 95.6122 39.435 95.9562 39.375H96.3454C96.635 39.316 96.8987 39.2515 97.1477 39.1795C97.3967 39.1075 97.6309 39.0264 97.8633 38.9397C98.1978 38.772 98.5234 38.5873 98.839 38.3864C99.1451 38.2041 99.4166 37.9693 99.6413 37.6929C99.7852 37.4901 99.9365 37.2945 100.097 37.1064C100.253 36.9209 100.454 36.7792 100.682 36.6951C101.029 36.5392 101.409 36.472 101.788 36.4995C102.236 36.5143 102.65 36.5217 103.024 36.5217C103.197 36.5217 103.378 36.5143 103.566 36.4995C103.736 36.4822 103.907 36.505 104.066 36.5659H104.503C104.718 36.5957 104.925 36.6691 105.11 36.7817C105.174 36.824 105.226 36.8824 105.26 36.951C105.295 37.0197 105.31 37.0962 105.306 37.1728C105.323 37.3489 105.3 37.5266 105.239 37.6928C105.109 38.0656 104.95 38.4276 104.763 38.7755C104.582 39.1065 104.379 39.4257 104.157 39.7309C103.579 40.6222 102.844 41.401 101.988 42.0291C101.054 42.6676 100.032 43.1649 98.9536 43.5047C98.6433 43.6124 98.3203 43.6794 97.9927 43.7039C97.6568 43.7363 97.3238 43.7943 96.9967 43.8773C96.8761 43.9071 96.7511 43.9146 96.6278 43.8994C96.5046 43.8842 96.3795 43.8917 96.2589 43.9216H95.7812C95.6224 43.9809 95.452 44.003 95.2832 43.9861C95.1162 43.9738 94.9499 43.9523 94.7852 43.9216C94.5841 43.8919 94.3796 43.8919 94.1784 43.9216C93.9925 43.9512 93.8024 43.9399 93.6214 43.8884C93.4691 43.8295 93.307 43.8001 93.1437 43.8017C92.9809 43.8042 92.8192 43.7748 92.6678 43.715C92.3481 43.6572 92.0302 43.5926 91.7143 43.5213C91.411 43.4551 91.119 43.3452 90.8474 43.1949C90.5289 43.0804 90.2325 42.9722 89.9581 42.8702C89.6927 42.7738 89.4381 42.6502 89.1982 42.5013C88.2912 41.9383 87.4605 41.2607 86.7266 40.4853C85.9909 39.7005 85.3902 38.7993 84.9486 37.8183C84.8053 37.5036 84.6892 37.1772 84.6019 36.8426C84.5098 36.4957 84.3939 36.1555 84.2551 35.8245C84.2283 35.7183 84.2141 35.6093 84.2127 35.4999C84.2115 35.3896 84.1967 35.2799 84.1684 35.1734C84.0486 34.8085 83.9761 34.4297 83.9527 34.0464C83.9231 33.6425 83.8936 33.2367 83.866 32.8328C83.869 32.6732 83.8616 32.5137 83.8438 32.3551C83.8283 32.1962 83.8357 32.0359 83.866 31.8792V31.3463L83.995 30.3062C84.1106 29.8144 84.2121 29.3373 84.2994 28.8749C84.382 28.4318 84.5125 27.9989 84.6885 27.5838C85.9268 24.5749 88.035 22.4476 91.0131 21.2021C91.4087 21.0299 91.8237 20.906 92.2489 20.8332C92.6682 20.7606 93.109 20.6666 93.5714 20.551C93.7866 20.5225 94.0035 20.5077 94.2206 20.5067C94.4384 20.5063 94.6558 20.4922 94.8717 20.4643C96.3473 20.4348 97.612 20.6008 98.6658 20.9623C99.6724 21.3002 100.628 21.7744 101.506 22.3716C101.778 22.5543 102.04 22.7519 102.29 22.9633C102.539 23.1686 102.77 23.3931 102.984 23.6346C103.068 23.7779 103.187 23.8972 103.331 23.9814C103.562 24.2999 103.779 24.6251 103.982 24.9571C104.183 25.2891 104.4 25.6285 104.631 25.9752C104.774 26.2331 104.897 26.5013 105 26.7775C105.102 27.0518 105.21 27.3482 105.324 27.6668C105.471 28.0474 105.587 28.439 105.671 28.838C105.754 29.2436 105.856 29.6494 105.979 30.0553C106.038 30.304 106.06 30.5601 106.044 30.8152C106.027 31.0697 106.049 31.3252 106.108 31.5733L106.101 32.0472ZM99.5974 29.4889C99.8003 29.2 99.8218 28.8458 99.6619 28.4265C99.5021 28.0072 99.3791 27.6961 99.293 27.4933C98.9297 26.7603 98.3754 26.139 97.6884 25.6949C97.0232 25.2768 96.101 25.0524 94.9218 25.0217C94.8778 25.0511 94.8279 25.0703 94.7756 25.0779C94.7233 25.0856 94.6699 25.0815 94.6194 25.0659C94.5201 25.0363 94.4143 25.0363 94.315 25.0659C94.1626 25.1255 94.0023 25.1621 93.8391 25.1748C93.6755 25.1869 93.5146 25.2229 93.3614 25.2817C92.7531 25.4645 92.1889 25.7706 91.704 26.1809C91.2191 26.5912 90.8238 27.097 90.5428 27.6666C90.47 27.8151 90.4048 27.9671 90.3474 28.1222C90.2764 28.3042 90.2257 28.4935 90.1961 28.6866C90.1663 28.8669 90.1738 29.0515 90.2182 29.2288C90.2602 29.4008 90.359 29.5535 90.4986 29.6623C90.7911 29.8209 91.1217 29.8956 91.454 29.8781H97.4374C97.842 29.8781 98.268 29.8707 98.7156 29.8559C99.1547 29.843 99.4535 29.7195 99.5974 29.4889Z" fill="#F8FBFE"/>
<path d="M111.178 13.0664H114.343C114.618 13.0657 114.893 13.0805 115.166 13.1107C115.392 13.1252 115.607 13.217 115.774 13.3708C115.955 13.5989 116.054 13.8817 116.054 14.1731C116.069 14.5051 116.077 14.8444 116.077 15.1912V41.2513C116.077 41.598 116.084 41.9952 116.099 42.4428C116.133 42.7945 116.065 43.1486 115.903 43.4628C115.811 43.59 115.695 43.6976 115.561 43.7793C115.427 43.861 115.278 43.9152 115.123 43.9387C114.934 43.9971 114.734 44.0122 114.538 43.9829C114.33 43.9541 114.12 43.9393 113.91 43.9387H111.827C111.538 43.9372 111.249 43.9206 110.962 43.8889C110.725 43.8684 110.499 43.7779 110.313 43.6289C110.221 43.5433 110.148 43.4389 110.099 43.3228C110.05 43.2067 110.027 43.0815 110.031 42.9556C110.016 42.6531 110.009 42.3414 110.009 42.0334V16.0268C110.009 15.6505 110.001 15.2023 109.986 14.6822C109.972 14.1621 110.037 13.7864 110.182 13.5552C110.233 13.4461 110.316 13.3553 110.42 13.2952C110.521 13.238 110.63 13.179 110.746 13.1218C110.819 13.1161 110.891 13.1044 110.962 13.0868C111.033 13.0742 111.106 13.0674 111.178 13.0664Z" fill="#F8FBFE"/>
<path d="M143.348 31.3093C143.464 31.7943 143.464 32.2998 143.348 32.7848V33.2183C143.289 33.4444 143.267 33.6786 143.283 33.9118C143.296 34.1456 143.274 34.38 143.217 34.6071C143.163 34.792 143.12 34.9798 143.088 35.1697C143.058 35.343 143.029 35.5386 143.001 35.7341C142.885 36.0513 142.784 36.3778 142.697 36.7098C142.614 37.0314 142.498 37.3436 142.35 37.6412C141.813 38.9303 140.999 40.0852 139.965 41.0239C138.908 41.9361 137.708 42.6677 136.413 43.1893C136.07 43.3323 135.714 43.4416 135.35 43.5157C134.982 43.5877 134.613 43.667 134.244 43.7537C134.092 43.8125 133.929 43.842 133.766 43.8404C133.606 43.8394 133.447 43.8536 133.29 43.8828C133.196 43.8834 133.101 43.8908 133.008 43.9049C132.915 43.9191 132.82 43.9265 132.726 43.927C132.496 43.9635 132.265 43.985 132.032 43.9916C131.785 44.0129 131.535 43.9911 131.295 43.927H130.861C130.712 43.8973 130.559 43.8899 130.407 43.9049C130.253 43.9201 130.096 43.898 129.952 43.8404C129.845 43.8122 129.736 43.7973 129.625 43.7961C129.501 43.7935 129.378 43.7792 129.256 43.7537C128.967 43.667 128.677 43.5951 128.388 43.536C128.105 43.4805 127.829 43.3932 127.565 43.276C127.218 43.1616 126.892 43.0455 126.589 42.9292C126.269 42.8064 125.957 42.6616 125.656 42.4959C124.687 41.9235 123.81 41.207 123.055 40.371C122.297 39.5063 121.683 38.5255 121.235 37.466C121.09 37.2071 120.98 36.9298 120.909 36.6416C120.837 36.3538 120.757 36.0495 120.671 35.7323C120.617 35.6088 120.587 35.476 120.584 35.3413C120.58 35.2073 120.55 35.0753 120.497 34.9521C120.439 34.7181 120.409 34.4776 120.411 34.2364C120.411 33.9952 120.382 33.7549 120.324 33.5208C120.296 33.3923 120.281 33.2613 120.28 33.1298V32.7406C120.215 32.5003 120.194 32.2506 120.215 32.0028C120.219 31.7531 120.255 31.505 120.324 31.265V30.9626C120.352 30.8124 120.359 30.6591 120.346 30.507C120.33 30.3521 120.352 30.1957 120.411 30.0514C120.438 29.9159 120.452 29.7782 120.453 29.6401C120.455 29.4987 120.485 29.3591 120.54 29.2288C120.655 28.8525 120.757 28.4837 120.844 28.1221C120.931 27.7592 121.047 27.4039 121.191 27.0597C121.647 25.9755 122.277 24.9727 123.055 24.0903C123.836 23.2464 124.726 22.5102 125.7 21.901C125.996 21.7526 126.3 21.622 126.612 21.51C126.929 21.3955 127.247 21.2652 127.565 21.1189C127.942 20.9743 128.335 20.8728 128.735 20.8164C129.159 20.7554 129.579 20.6686 129.992 20.5564C130.208 20.5279 130.426 20.5131 130.643 20.5121C130.846 20.5107 131.048 20.4947 131.248 20.4642C132.924 20.4347 134.377 20.608 135.607 20.9842C136.772 21.3304 137.876 21.8569 138.879 22.5446C139.199 22.7769 139.524 23.0302 139.855 23.3045C140.173 23.5642 140.457 23.8629 140.701 24.1935C140.925 24.4716 141.135 24.761 141.33 25.0604L141.915 25.9697C142.117 26.2879 142.278 26.6306 142.393 26.9897C142.507 27.3586 142.638 27.7275 142.782 28.139C142.871 28.3796 142.944 28.6261 142.999 28.8767C143.057 29.1368 143.114 29.3988 143.173 29.6588C143.201 29.7723 143.215 29.8887 143.215 30.0055C143.215 30.1225 143.23 30.239 143.259 30.3523C143.318 30.5039 143.332 30.6687 143.302 30.8282C143.271 30.9897 143.287 31.1566 143.348 31.3093ZM137.278 32.8699C137.335 32.4531 137.335 32.0306 137.278 31.6138V31.2654C137.218 31.114 137.189 30.9523 137.191 30.7895C137.193 30.6292 137.178 30.4691 137.147 30.3118C137.151 30.2231 137.137 30.1345 137.105 30.0518C137.046 29.8212 136.996 29.5833 136.952 29.3361C136.912 29.0924 136.851 28.8528 136.767 28.6205C136.482 27.9282 136.102 27.2789 135.638 26.6911C135.172 26.1315 134.577 25.693 133.905 25.4129C133.731 25.3557 133.558 25.3041 133.385 25.2599C133.211 25.2156 133.016 25.1676 132.82 25.1086C132.579 25.05 132.33 25.0283 132.082 25.0441C131.822 25.0588 131.562 25.0662 131.3 25.0662C131.211 25.1244 131.103 25.1474 130.998 25.1308C130.896 25.1149 130.792 25.1225 130.694 25.1529C130.492 25.2101 130.297 25.2599 130.109 25.3041C129.934 25.343 129.766 25.4089 129.611 25.4996C128.917 25.7941 128.312 26.2644 127.855 26.8642C127.39 27.488 127.031 28.184 126.793 28.9244C126.703 29.2224 126.638 29.5271 126.597 29.8355C126.553 30.1528 126.503 30.4719 126.446 30.7891C126.416 30.9318 126.402 31.077 126.402 31.2226V31.656C126.335 31.9549 126.313 32.262 126.337 32.5672C126.338 32.8734 126.375 33.1785 126.446 33.4765V33.8675C126.501 34.0889 126.544 34.313 126.575 34.5389C126.606 34.7656 126.649 34.9904 126.706 35.2121C126.932 35.946 127.241 36.6515 127.628 37.3148C128.033 37.9174 128.575 38.415 129.211 38.7663C129.417 38.9133 129.643 39.03 129.882 39.1131C130.13 39.202 130.384 39.2747 130.642 39.3307C130.74 39.359 130.843 39.3665 130.944 39.3528C131.046 39.3393 131.15 39.3462 131.249 39.3731C131.37 39.4038 131.493 39.426 131.618 39.4395C131.741 39.4547 131.866 39.4472 131.987 39.4174H132.333C132.562 39.3603 132.793 39.3165 133.027 39.2864C133.251 39.2611 133.469 39.2026 133.676 39.1131C134.364 38.8662 134.987 38.4664 135.498 37.9437C135.989 37.4067 136.385 36.7906 136.67 36.1214C136.782 35.8407 136.869 35.5506 136.93 35.2545C136.987 34.9668 137.059 34.6631 137.145 34.3434C137.174 34.2374 137.189 34.1284 137.19 34.0187C137.19 33.9092 137.204 33.8001 137.232 33.6941V33.2828C137.234 33.1439 137.249 33.0055 137.278 32.8696L137.278 32.8699Z" fill="#F8FBFE"/>
<path d="M160.172 21.0603C161.906 21.0014 163.352 21.2473 164.509 21.7981C165.637 22.3238 166.586 23.1683 167.24 24.2272C167.442 24.5446 167.602 24.8868 167.716 25.2454C167.832 25.6068 167.947 25.9757 168.063 26.352C168.118 26.5648 168.155 26.7821 168.172 27.0013C168.186 27.2068 168.223 27.4103 168.28 27.6081C168.272 27.7253 168.287 27.843 168.323 27.9548C168.383 28.3714 168.412 28.7918 168.411 29.2127V41.3528C168.411 41.9062 168.402 42.43 168.389 42.9354C168.376 43.4407 168.164 43.7674 167.76 43.9111C167.564 43.9728 167.359 44.0021 167.153 43.9977H164.117C163.806 44.0009 163.494 43.9793 163.186 43.9332C163.061 43.9188 162.941 43.8785 162.832 43.815C162.724 43.7515 162.63 43.6661 162.557 43.5643C162.432 43.3623 162.365 43.1303 162.361 42.8929C162.347 42.6181 162.339 42.323 162.339 42.0039V32.5068C162.339 31.437 162.296 30.4465 162.21 29.5354C162.152 28.7088 161.883 27.9108 161.43 27.217C160.997 26.6173 160.369 26.1864 159.654 25.9978C159.509 25.9403 159.354 25.9109 159.198 25.9111C159.029 25.9098 158.86 25.8805 158.7 25.8244C158.521 25.795 158.339 25.7882 158.158 25.8041C157.99 25.8125 157.823 25.8341 157.658 25.8687C157.56 25.8954 157.458 25.9097 157.356 25.9111C157.267 25.9123 157.179 25.9272 157.096 25.9554C156.523 26.0881 155.98 26.323 155.491 26.6489C154.565 27.3153 154.016 28.2837 153.844 29.5539C153.661 30.9771 153.574 32.411 153.584 33.8458V42.6991C153.591 42.9233 153.546 43.1462 153.453 43.3501C153.394 43.495 153.3 43.6226 153.179 43.721C153.057 43.8194 152.913 43.8854 152.759 43.9127C152.372 43.9765 151.98 44.0055 151.588 43.9994H149.419C149.1 43.9994 148.783 43.9865 148.466 43.957C148.335 43.9551 148.207 43.9273 148.088 43.875C147.969 43.8227 147.861 43.7471 147.772 43.6526C147.569 43.3926 147.475 43.0182 147.49 42.5257C147.504 42.0331 147.51 41.5721 147.51 41.1387V23.4875C147.51 23.1702 147.51 22.8807 147.532 22.6206C147.538 22.3831 147.622 22.1542 147.772 21.9695C147.841 21.8748 147.94 21.806 148.052 21.774C148.188 21.7297 148.326 21.694 148.465 21.667H148.681C148.831 21.637 148.984 21.6221 149.137 21.6228H151.413C151.638 21.6189 151.862 21.6262 152.086 21.6449C152.285 21.6558 152.481 21.6923 152.671 21.7537C152.762 21.7883 152.845 21.8405 152.915 21.9073C152.986 21.9741 153.043 22.0541 153.082 22.1429C153.162 22.34 153.228 22.5429 153.278 22.7497C153.305 22.8487 153.313 22.9522 153.3 23.0541C153.293 23.0995 153.295 23.1459 153.306 23.1906C153.317 23.2352 153.337 23.2772 153.364 23.3141C153.392 23.4121 153.444 23.5015 153.516 23.5741L153.711 23.7032C153.858 23.7213 154.007 23.7009 154.143 23.644C154.28 23.5871 154.399 23.4956 154.489 23.3786C154.673 23.1496 154.893 22.9521 155.141 22.794C155.936 22.2083 156.812 21.7411 157.741 21.4069C158.001 21.3198 158.27 21.2616 158.543 21.2335C158.818 21.204 159.116 21.1616 159.433 21.1026C159.561 21.072 159.693 21.0645 159.824 21.0804C159.94 21.1001 160.059 21.0932 160.172 21.0603Z" fill="#F8FBFE"/>
<path d="M32.922 13.472C32.8999 13.4628 32.5788 13.3429 32.5531 13.3315C29.7957 12.3245 26.9737 12.1991 25.9869 12.188H13.9907C13.7401 12.194 13.493 12.2472 13.2621 12.3448L13.1625 12.3982L13.0039 12.5495L24.3897 18.1676L33.2153 13.6506L32.922 13.472Z" fill="#EA4449"/>
<path d="M12.8518 12.6823C12.6913 12.9743 12.6225 13.3079 12.6542 13.6396C12.6689 14.0429 12.6763 14.4235 12.6763 14.7813V41.0479C12.6763 41.3762 12.6689 41.7863 12.6542 42.2782C12.6247 42.6478 12.6629 43.0196 12.7666 43.3755C12.7941 43.4395 12.8268 43.5012 12.8644 43.5599L24.4844 17.9849L13.165 12.4004C13.0408 12.4696 12.9337 12.566 12.8518 12.6823Z" fill="#E7181A"/>
<path d="M34.63 14.4407C34.4326 14.3079 34.2295 14.1751 34.0215 14.0403C33.6928 13.8357 33.3494 13.6557 32.9942 13.5017L32.9241 13.4722L24.4727 17.9875L36.8304 39.265C37.1167 38.8751 37.3827 38.4707 37.6272 38.0533C39.3241 35.139 40.1725 31.5811 40.1725 27.3795C40.1611 25.6197 39.9583 23.8664 39.5676 22.1505C39.1632 20.315 38.3928 18.5799 37.3026 17.0489C37.0627 16.7117 36.8053 16.3873 36.5316 16.0769C35.9515 15.4719 35.3147 14.924 34.63 14.4407Z" fill="#AA0B1C"/>
<path d="M12.8359 43.5358C12.9017 43.6569 12.9958 43.7604 13.1101 43.8374C13.2244 43.9145 13.3556 43.9629 13.4925 43.9784C13.5405 43.9784 13.5903 43.9914 13.6419 43.9951H26.9625C31.2545 43.9951 34.5247 42.3996 36.8247 39.2641L24.4667 17.9868L12.8359 43.5358Z" fill="#7F0E16"/>
</svg>
